# File created by Blade
# Date/Time:  Thu Jan 22 16:31:11 2015
# Frame Rate: 120.000 fps
#------------------------------------------------------
:FULLY-SPECIFIED
:DEGREES
958
root 16.140967 32.164166 -0.718942 6.133337 25.934971 1.274173
RightUpLeg -5.280532 -23.773198 -30.483462
RightLeg 27.905848 -0.000000 -0.000000
RightFoot -19.876337 -15.906894 42.100259
RightToeBase 6.902744 -0.000000 -0.000000
LeftUpLeg -45.083744 25.027381 6.931835
LeftLeg 41.757378 -0.000000 -0.000000
LeftFoot -4.945623 16.918987 -27.068922
LeftToeBase 3.545609 -0.000000 -0.000000
Spine 37.671246 -14.551228 -24.797681
RightShoulder -4.068664 -19.583990 -15.207681
RightArm 6.708986 -2.273226 72.721927
RightForeArm 18.062170 0.000000 25.077521
RightHand 9.414215 -0.000000 -23.694509
RightHandThumb1 -24.326973 -0.000000 -32.862282
LeftShoulder -13.469291 30.518563 14.163897
LeftArm 39.350521 -13.221933 -62.003877
LeftForeArm 8.088254 -0.000000 32.964278
LeftHand -22.929985 -0.000000 9.062865
LeftHandThumb1 -26.253704 0.000000 33.147579
Head -23.444151 -3.668084 7.793867
959
root 15.930167 32.185135 -0.671399 5.517110 25.473066 1.423198
RightUpLeg -5.583377 -24.262835 -30.628651
RightLeg 29.246269 -0.000000 -0.000000
RightFoot -20.023738 -14.085807 41.384058
RightToeBase 6.565004 -0.000000 -0.000000
LeftUpLeg -43.801384 25.259406 7.526596
LeftLeg 40.868649 -0.000000 -0.000000
LeftFoot -4.364625 17.258829 -27.181084
LeftToeBase 2.926132 -0.000000 -0.000000
Spine 37.517598 -14.757279 -24.089275
RightShoulder -4.115101 -19.648969 -15.124842
RightArm 6.731486 -2.198965 72.912308
RightForeArm 17.563884 -0.000000 25.832370
RightHand 9.306524 -0.000000 -23.168549
RightHandThumb1 -24.326973 -0.000000 -32.862282
LeftShoulder -13.724390 30.721633 13.970462
LeftArm 39.183721 -12.435175 -62.539822
LeftForeArm 8.023992 -0.000000 33.414637
LeftHand -23.059811 -0.000000 9.243923
LeftHandThumb1 -26.253704 0.000000 33.147579
Head -23.668211 -3.252745 7.538571
960
root 15.713273 32.206898 -0.619069 4.874256 24.973514 1.553034
RightUpLeg -5.899453 -24.715839 -30.744924
RightLeg 30.569399 -0.000000 -0.000000
RightFoot -20.199854 -12.436977 40.767881
RightToeBase 6.433809 -0.000000 -0.000000
LeftUpLeg -42.460560 25.524456 8.152576
LeftLeg 39.943964 -0.000000 -0.000000
LeftFoot -3.796587 17.631883 -27.316542
LeftToeBase 2.298303 -0.000000 -0.000000
Spine 37.367808 -14.941506 -23.374812
RightShoulder -4.113543 -19.809646 -15.081098
RightArm 6.857132 -2.237828 73.106102
RightForeArm 17.017011 -0.000000 26.592379
RightHand 9.012926 -0.000000 -22.756851
RightHandThumb1 -24.326973 -0.000000 -32.862282
LeftShoulder -14.005406 31.036240 13.741718
LeftArm 39.089440 -11.737281 -63.186755
LeftForeArm 8.063466 -0.000000 33.864216
LeftHand -23.290883 -0.000000 9.634993
LeftHandThumb1 -26.253704 0.000000 33.147579
Head -23.878822 -2.854295 7.250684
961
root 15.489880 32.231224 -0.562832 4.211647 24.451019 1.645488
RightUpLeg -6.197601 -25.045431 -30.803143
RightLeg 31.816435 -0.000000 -0.000000
RightFoot -20.455286 -11.069269 40.355314
RightToeBase 6.557484 -0.000000 -0.000000
LeftUpLeg -41.080419 25.825790 8.824943
LeftLeg 38.969706 -0.000000 -0.000000
LeftFoot -3.196901 18.001564 -27.434783
LeftToeBase 1.847385 -0.000000 -0.000000
Spine 37.244712 -15.097227 -22.637328
RightShoulder -4.126632 -19.863078 -14.993738
RightArm 6.929131 -2.342462 73.200088
RightForeArm 16.595630 0.000000 27.305658
RightHand 9.111593 -0.000000 -22.661731
RightHandThumb1 -24.326973 -0.000000 -32.862282
LeftShoulder -14.373774 31.389427 13.460605
LeftArm 39.053360 -11.074786 -63.913762
LeftForeArm 8.073945 -0.000000 34.366193
LeftHand -23.497804 0.000000 9.917439
LeftHandThumb1 -26.253704 0.000000 33.147579
Head -24.154459 -2.330187 6.973492
